<mxfile host="app.diagrams.net" agent="Mozilla/5.0 (Windows NT 10.0; Win64; x64; rv:138.0) Gecko/20100101 Firefox/138.0" version="27.0.5">
  <diagram name="Page-1" id="T0YXiwVSoA-QEZKaducC">
    <mxGraphModel dx="1365" dy="736" grid="1" gridSize="10" guides="1" tooltips="1" connect="1" arrows="1" fold="1" page="1" pageScale="1" pageWidth="1920" pageHeight="1200" math="0" shadow="0">
      <root>
        <mxCell id="0" />
        <mxCell id="1" parent="0" />
        <mxCell id="UB3R42ZhoQ2jqi41_uFo-28" value="gold.dim_customers" style="shape=table;startSize=40;container=1;collapsible=1;childLayout=tableLayout;fixedRows=1;rowLines=0;fontStyle=1;align=center;resizeLast=1;html=1;rounded=1;fontSize=16;fillColor=#FFD700;strokeColor=#FFD700;" vertex="1" parent="1">
          <mxGeometry x="120" y="120" width="210" height="430" as="geometry" />
        </mxCell>
        <mxCell id="UB3R42ZhoQ2jqi41_uFo-29" value="" style="shape=tableRow;horizontal=0;startSize=0;swimlaneHead=0;swimlaneBody=0;fillColor=none;collapsible=0;dropTarget=0;points=[[0,0.5],[1,0.5]];portConstraint=eastwest;top=0;left=0;right=0;bottom=1;fontSize=16;" vertex="1" parent="UB3R42ZhoQ2jqi41_uFo-28">
          <mxGeometry y="40" width="210" height="39" as="geometry" />
        </mxCell>
        <mxCell id="UB3R42ZhoQ2jqi41_uFo-30" value="PK" style="shape=partialRectangle;connectable=0;fillColor=none;top=0;left=0;bottom=0;right=0;fontStyle=1;overflow=hidden;whiteSpace=wrap;html=1;fontSize=16;" vertex="1" parent="UB3R42ZhoQ2jqi41_uFo-29">
          <mxGeometry width="30" height="39" as="geometry">
            <mxRectangle width="30" height="39" as="alternateBounds" />
          </mxGeometry>
        </mxCell>
        <mxCell id="UB3R42ZhoQ2jqi41_uFo-31" value="customer_key" style="shape=partialRectangle;connectable=0;fillColor=none;top=0;left=0;bottom=0;right=0;align=left;spacingLeft=6;fontStyle=5;overflow=hidden;whiteSpace=wrap;html=1;fontSize=16;" vertex="1" parent="UB3R42ZhoQ2jqi41_uFo-29">
          <mxGeometry x="30" width="180" height="39" as="geometry">
            <mxRectangle width="180" height="39" as="alternateBounds" />
          </mxGeometry>
        </mxCell>
        <mxCell id="UB3R42ZhoQ2jqi41_uFo-32" value="" style="shape=tableRow;horizontal=0;startSize=0;swimlaneHead=0;swimlaneBody=0;fillColor=none;collapsible=0;dropTarget=0;points=[[0,0.5],[1,0.5]];portConstraint=eastwest;top=0;left=0;right=0;bottom=0;fontSize=16;" vertex="1" parent="UB3R42ZhoQ2jqi41_uFo-28">
          <mxGeometry y="79" width="210" height="39" as="geometry" />
        </mxCell>
        <mxCell id="UB3R42ZhoQ2jqi41_uFo-33" value="" style="shape=partialRectangle;connectable=0;fillColor=none;top=0;left=0;bottom=0;right=0;editable=1;overflow=hidden;whiteSpace=wrap;html=1;fontSize=16;" vertex="1" parent="UB3R42ZhoQ2jqi41_uFo-32">
          <mxGeometry width="30" height="39" as="geometry">
            <mxRectangle width="30" height="39" as="alternateBounds" />
          </mxGeometry>
        </mxCell>
        <mxCell id="UB3R42ZhoQ2jqi41_uFo-34" value="customer_id" style="shape=partialRectangle;connectable=0;fillColor=none;top=0;left=0;bottom=0;right=0;align=left;spacingLeft=6;overflow=hidden;whiteSpace=wrap;html=1;fontSize=16;" vertex="1" parent="UB3R42ZhoQ2jqi41_uFo-32">
          <mxGeometry x="30" width="180" height="39" as="geometry">
            <mxRectangle width="180" height="39" as="alternateBounds" />
          </mxGeometry>
        </mxCell>
        <mxCell id="UB3R42ZhoQ2jqi41_uFo-35" value="" style="shape=tableRow;horizontal=0;startSize=0;swimlaneHead=0;swimlaneBody=0;fillColor=none;collapsible=0;dropTarget=0;points=[[0,0.5],[1,0.5]];portConstraint=eastwest;top=0;left=0;right=0;bottom=0;fontSize=16;" vertex="1" parent="UB3R42ZhoQ2jqi41_uFo-28">
          <mxGeometry y="118" width="210" height="39" as="geometry" />
        </mxCell>
        <mxCell id="UB3R42ZhoQ2jqi41_uFo-36" value="" style="shape=partialRectangle;connectable=0;fillColor=none;top=0;left=0;bottom=0;right=0;editable=1;overflow=hidden;whiteSpace=wrap;html=1;fontSize=16;" vertex="1" parent="UB3R42ZhoQ2jqi41_uFo-35">
          <mxGeometry width="30" height="39" as="geometry">
            <mxRectangle width="30" height="39" as="alternateBounds" />
          </mxGeometry>
        </mxCell>
        <mxCell id="UB3R42ZhoQ2jqi41_uFo-37" value="customer_number" style="shape=partialRectangle;connectable=0;fillColor=none;top=0;left=0;bottom=0;right=0;align=left;spacingLeft=6;overflow=hidden;whiteSpace=wrap;html=1;fontSize=16;" vertex="1" parent="UB3R42ZhoQ2jqi41_uFo-35">
          <mxGeometry x="30" width="180" height="39" as="geometry">
            <mxRectangle width="180" height="39" as="alternateBounds" />
          </mxGeometry>
        </mxCell>
        <mxCell id="UB3R42ZhoQ2jqi41_uFo-38" value="" style="shape=tableRow;horizontal=0;startSize=0;swimlaneHead=0;swimlaneBody=0;fillColor=none;collapsible=0;dropTarget=0;points=[[0,0.5],[1,0.5]];portConstraint=eastwest;top=0;left=0;right=0;bottom=0;fontSize=16;" vertex="1" parent="UB3R42ZhoQ2jqi41_uFo-28">
          <mxGeometry y="157" width="210" height="39" as="geometry" />
        </mxCell>
        <mxCell id="UB3R42ZhoQ2jqi41_uFo-39" value="" style="shape=partialRectangle;connectable=0;fillColor=none;top=0;left=0;bottom=0;right=0;editable=1;overflow=hidden;whiteSpace=wrap;html=1;fontSize=16;" vertex="1" parent="UB3R42ZhoQ2jqi41_uFo-38">
          <mxGeometry width="30" height="39" as="geometry">
            <mxRectangle width="30" height="39" as="alternateBounds" />
          </mxGeometry>
        </mxCell>
        <mxCell id="UB3R42ZhoQ2jqi41_uFo-40" value="first_name" style="shape=partialRectangle;connectable=0;fillColor=none;top=0;left=0;bottom=0;right=0;align=left;spacingLeft=6;overflow=hidden;whiteSpace=wrap;html=1;fontSize=16;" vertex="1" parent="UB3R42ZhoQ2jqi41_uFo-38">
          <mxGeometry x="30" width="180" height="39" as="geometry">
            <mxRectangle width="180" height="39" as="alternateBounds" />
          </mxGeometry>
        </mxCell>
        <mxCell id="UB3R42ZhoQ2jqi41_uFo-41" value="" style="shape=tableRow;horizontal=0;startSize=0;swimlaneHead=0;swimlaneBody=0;fillColor=none;collapsible=0;dropTarget=0;points=[[0,0.5],[1,0.5]];portConstraint=eastwest;top=0;left=0;right=0;bottom=0;fontSize=16;" vertex="1" parent="UB3R42ZhoQ2jqi41_uFo-28">
          <mxGeometry y="196" width="210" height="39" as="geometry" />
        </mxCell>
        <mxCell id="UB3R42ZhoQ2jqi41_uFo-42" value="" style="shape=partialRectangle;connectable=0;fillColor=none;top=0;left=0;bottom=0;right=0;editable=1;overflow=hidden;whiteSpace=wrap;html=1;fontSize=16;" vertex="1" parent="UB3R42ZhoQ2jqi41_uFo-41">
          <mxGeometry width="30" height="39" as="geometry">
            <mxRectangle width="30" height="39" as="alternateBounds" />
          </mxGeometry>
        </mxCell>
        <mxCell id="UB3R42ZhoQ2jqi41_uFo-43" value="last_name" style="shape=partialRectangle;connectable=0;fillColor=none;top=0;left=0;bottom=0;right=0;align=left;spacingLeft=6;overflow=hidden;whiteSpace=wrap;html=1;fontSize=16;" vertex="1" parent="UB3R42ZhoQ2jqi41_uFo-41">
          <mxGeometry x="30" width="180" height="39" as="geometry">
            <mxRectangle width="180" height="39" as="alternateBounds" />
          </mxGeometry>
        </mxCell>
        <mxCell id="UB3R42ZhoQ2jqi41_uFo-44" value="" style="shape=tableRow;horizontal=0;startSize=0;swimlaneHead=0;swimlaneBody=0;fillColor=none;collapsible=0;dropTarget=0;points=[[0,0.5],[1,0.5]];portConstraint=eastwest;top=0;left=0;right=0;bottom=0;fontSize=16;" vertex="1" parent="UB3R42ZhoQ2jqi41_uFo-28">
          <mxGeometry y="235" width="210" height="39" as="geometry" />
        </mxCell>
        <mxCell id="UB3R42ZhoQ2jqi41_uFo-45" value="" style="shape=partialRectangle;connectable=0;fillColor=none;top=0;left=0;bottom=0;right=0;editable=1;overflow=hidden;whiteSpace=wrap;html=1;fontSize=16;" vertex="1" parent="UB3R42ZhoQ2jqi41_uFo-44">
          <mxGeometry width="30" height="39" as="geometry">
            <mxRectangle width="30" height="39" as="alternateBounds" />
          </mxGeometry>
        </mxCell>
        <mxCell id="UB3R42ZhoQ2jqi41_uFo-46" value="country" style="shape=partialRectangle;connectable=0;fillColor=none;top=0;left=0;bottom=0;right=0;align=left;spacingLeft=6;overflow=hidden;whiteSpace=wrap;html=1;fontSize=16;" vertex="1" parent="UB3R42ZhoQ2jqi41_uFo-44">
          <mxGeometry x="30" width="180" height="39" as="geometry">
            <mxRectangle width="180" height="39" as="alternateBounds" />
          </mxGeometry>
        </mxCell>
        <mxCell id="UB3R42ZhoQ2jqi41_uFo-47" value="" style="shape=tableRow;horizontal=0;startSize=0;swimlaneHead=0;swimlaneBody=0;fillColor=none;collapsible=0;dropTarget=0;points=[[0,0.5],[1,0.5]];portConstraint=eastwest;top=0;left=0;right=0;bottom=0;fontSize=16;" vertex="1" parent="UB3R42ZhoQ2jqi41_uFo-28">
          <mxGeometry y="274" width="210" height="39" as="geometry" />
        </mxCell>
        <mxCell id="UB3R42ZhoQ2jqi41_uFo-48" value="" style="shape=partialRectangle;connectable=0;fillColor=none;top=0;left=0;bottom=0;right=0;editable=1;overflow=hidden;whiteSpace=wrap;html=1;fontSize=16;" vertex="1" parent="UB3R42ZhoQ2jqi41_uFo-47">
          <mxGeometry width="30" height="39" as="geometry">
            <mxRectangle width="30" height="39" as="alternateBounds" />
          </mxGeometry>
        </mxCell>
        <mxCell id="UB3R42ZhoQ2jqi41_uFo-49" value="marital_status" style="shape=partialRectangle;connectable=0;fillColor=none;top=0;left=0;bottom=0;right=0;align=left;spacingLeft=6;overflow=hidden;whiteSpace=wrap;html=1;fontSize=16;" vertex="1" parent="UB3R42ZhoQ2jqi41_uFo-47">
          <mxGeometry x="30" width="180" height="39" as="geometry">
            <mxRectangle width="180" height="39" as="alternateBounds" />
          </mxGeometry>
        </mxCell>
        <mxCell id="UB3R42ZhoQ2jqi41_uFo-50" value="" style="shape=tableRow;horizontal=0;startSize=0;swimlaneHead=0;swimlaneBody=0;fillColor=none;collapsible=0;dropTarget=0;points=[[0,0.5],[1,0.5]];portConstraint=eastwest;top=0;left=0;right=0;bottom=0;fontSize=16;" vertex="1" parent="UB3R42ZhoQ2jqi41_uFo-28">
          <mxGeometry y="313" width="210" height="39" as="geometry" />
        </mxCell>
        <mxCell id="UB3R42ZhoQ2jqi41_uFo-51" value="" style="shape=partialRectangle;connectable=0;fillColor=none;top=0;left=0;bottom=0;right=0;editable=1;overflow=hidden;whiteSpace=wrap;html=1;fontSize=16;" vertex="1" parent="UB3R42ZhoQ2jqi41_uFo-50">
          <mxGeometry width="30" height="39" as="geometry">
            <mxRectangle width="30" height="39" as="alternateBounds" />
          </mxGeometry>
        </mxCell>
        <mxCell id="UB3R42ZhoQ2jqi41_uFo-52" value="gender" style="shape=partialRectangle;connectable=0;fillColor=none;top=0;left=0;bottom=0;right=0;align=left;spacingLeft=6;overflow=hidden;whiteSpace=wrap;html=1;fontSize=16;" vertex="1" parent="UB3R42ZhoQ2jqi41_uFo-50">
          <mxGeometry x="30" width="180" height="39" as="geometry">
            <mxRectangle width="180" height="39" as="alternateBounds" />
          </mxGeometry>
        </mxCell>
        <mxCell id="UB3R42ZhoQ2jqi41_uFo-53" value="" style="shape=tableRow;horizontal=0;startSize=0;swimlaneHead=0;swimlaneBody=0;fillColor=none;collapsible=0;dropTarget=0;points=[[0,0.5],[1,0.5]];portConstraint=eastwest;top=0;left=0;right=0;bottom=0;fontSize=16;" vertex="1" parent="UB3R42ZhoQ2jqi41_uFo-28">
          <mxGeometry y="352" width="210" height="39" as="geometry" />
        </mxCell>
        <mxCell id="UB3R42ZhoQ2jqi41_uFo-54" value="" style="shape=partialRectangle;connectable=0;fillColor=none;top=0;left=0;bottom=0;right=0;editable=1;overflow=hidden;whiteSpace=wrap;html=1;fontSize=16;" vertex="1" parent="UB3R42ZhoQ2jqi41_uFo-53">
          <mxGeometry width="30" height="39" as="geometry">
            <mxRectangle width="30" height="39" as="alternateBounds" />
          </mxGeometry>
        </mxCell>
        <mxCell id="UB3R42ZhoQ2jqi41_uFo-55" value="birthdate" style="shape=partialRectangle;connectable=0;fillColor=none;top=0;left=0;bottom=0;right=0;align=left;spacingLeft=6;overflow=hidden;whiteSpace=wrap;html=1;fontSize=16;" vertex="1" parent="UB3R42ZhoQ2jqi41_uFo-53">
          <mxGeometry x="30" width="180" height="39" as="geometry">
            <mxRectangle width="180" height="39" as="alternateBounds" />
          </mxGeometry>
        </mxCell>
        <mxCell id="UB3R42ZhoQ2jqi41_uFo-56" value="" style="shape=tableRow;horizontal=0;startSize=0;swimlaneHead=0;swimlaneBody=0;fillColor=none;collapsible=0;dropTarget=0;points=[[0,0.5],[1,0.5]];portConstraint=eastwest;top=0;left=0;right=0;bottom=0;fontSize=16;" vertex="1" parent="UB3R42ZhoQ2jqi41_uFo-28">
          <mxGeometry y="391" width="210" height="39" as="geometry" />
        </mxCell>
        <mxCell id="UB3R42ZhoQ2jqi41_uFo-57" value="" style="shape=partialRectangle;connectable=0;fillColor=none;top=0;left=0;bottom=0;right=0;editable=1;overflow=hidden;whiteSpace=wrap;html=1;fontSize=16;" vertex="1" parent="UB3R42ZhoQ2jqi41_uFo-56">
          <mxGeometry width="30" height="39" as="geometry">
            <mxRectangle width="30" height="39" as="alternateBounds" />
          </mxGeometry>
        </mxCell>
        <mxCell id="UB3R42ZhoQ2jqi41_uFo-58" value="create_date" style="shape=partialRectangle;connectable=0;fillColor=none;top=0;left=0;bottom=0;right=0;align=left;spacingLeft=6;overflow=hidden;whiteSpace=wrap;html=1;fontSize=16;" vertex="1" parent="UB3R42ZhoQ2jqi41_uFo-56">
          <mxGeometry x="30" width="180" height="39" as="geometry">
            <mxRectangle width="180" height="39" as="alternateBounds" />
          </mxGeometry>
        </mxCell>
        <mxCell id="UB3R42ZhoQ2jqi41_uFo-59" value="gold.dim_products" style="shape=table;startSize=40;container=1;collapsible=1;childLayout=tableLayout;fixedRows=1;rowLines=0;fontStyle=1;align=center;resizeLast=1;html=1;rounded=1;fontSize=16;fillColor=#FFD700;strokeColor=#FFD700;" vertex="1" parent="1">
          <mxGeometry x="904" y="120" width="220" height="469" as="geometry" />
        </mxCell>
        <mxCell id="UB3R42ZhoQ2jqi41_uFo-60" value="" style="shape=tableRow;horizontal=0;startSize=0;swimlaneHead=0;swimlaneBody=0;fillColor=none;collapsible=0;dropTarget=0;points=[[0,0.5],[1,0.5]];portConstraint=eastwest;top=0;left=0;right=0;bottom=1;fontSize=16;" vertex="1" parent="UB3R42ZhoQ2jqi41_uFo-59">
          <mxGeometry y="40" width="220" height="39" as="geometry" />
        </mxCell>
        <mxCell id="UB3R42ZhoQ2jqi41_uFo-61" value="PK" style="shape=partialRectangle;connectable=0;fillColor=none;top=0;left=0;bottom=0;right=0;fontStyle=1;overflow=hidden;whiteSpace=wrap;html=1;fontSize=16;" vertex="1" parent="UB3R42ZhoQ2jqi41_uFo-60">
          <mxGeometry width="30" height="39" as="geometry">
            <mxRectangle width="30" height="39" as="alternateBounds" />
          </mxGeometry>
        </mxCell>
        <mxCell id="UB3R42ZhoQ2jqi41_uFo-62" value="product_key" style="shape=partialRectangle;connectable=0;fillColor=none;top=0;left=0;bottom=0;right=0;align=left;spacingLeft=6;fontStyle=5;overflow=hidden;whiteSpace=wrap;html=1;fontSize=16;" vertex="1" parent="UB3R42ZhoQ2jqi41_uFo-60">
          <mxGeometry x="30" width="190" height="39" as="geometry">
            <mxRectangle width="190" height="39" as="alternateBounds" />
          </mxGeometry>
        </mxCell>
        <mxCell id="UB3R42ZhoQ2jqi41_uFo-63" value="" style="shape=tableRow;horizontal=0;startSize=0;swimlaneHead=0;swimlaneBody=0;fillColor=none;collapsible=0;dropTarget=0;points=[[0,0.5],[1,0.5]];portConstraint=eastwest;top=0;left=0;right=0;bottom=0;fontSize=16;" vertex="1" parent="UB3R42ZhoQ2jqi41_uFo-59">
          <mxGeometry y="79" width="220" height="39" as="geometry" />
        </mxCell>
        <mxCell id="UB3R42ZhoQ2jqi41_uFo-64" value="" style="shape=partialRectangle;connectable=0;fillColor=none;top=0;left=0;bottom=0;right=0;editable=1;overflow=hidden;whiteSpace=wrap;html=1;fontSize=16;" vertex="1" parent="UB3R42ZhoQ2jqi41_uFo-63">
          <mxGeometry width="30" height="39" as="geometry">
            <mxRectangle width="30" height="39" as="alternateBounds" />
          </mxGeometry>
        </mxCell>
        <mxCell id="UB3R42ZhoQ2jqi41_uFo-65" value="product_id" style="shape=partialRectangle;connectable=0;fillColor=none;top=0;left=0;bottom=0;right=0;align=left;spacingLeft=6;overflow=hidden;whiteSpace=wrap;html=1;fontSize=16;" vertex="1" parent="UB3R42ZhoQ2jqi41_uFo-63">
          <mxGeometry x="30" width="190" height="39" as="geometry">
            <mxRectangle width="190" height="39" as="alternateBounds" />
          </mxGeometry>
        </mxCell>
        <mxCell id="UB3R42ZhoQ2jqi41_uFo-66" value="" style="shape=tableRow;horizontal=0;startSize=0;swimlaneHead=0;swimlaneBody=0;fillColor=none;collapsible=0;dropTarget=0;points=[[0,0.5],[1,0.5]];portConstraint=eastwest;top=0;left=0;right=0;bottom=0;fontSize=16;" vertex="1" parent="UB3R42ZhoQ2jqi41_uFo-59">
          <mxGeometry y="118" width="220" height="39" as="geometry" />
        </mxCell>
        <mxCell id="UB3R42ZhoQ2jqi41_uFo-67" value="" style="shape=partialRectangle;connectable=0;fillColor=none;top=0;left=0;bottom=0;right=0;editable=1;overflow=hidden;whiteSpace=wrap;html=1;fontSize=16;" vertex="1" parent="UB3R42ZhoQ2jqi41_uFo-66">
          <mxGeometry width="30" height="39" as="geometry">
            <mxRectangle width="30" height="39" as="alternateBounds" />
          </mxGeometry>
        </mxCell>
        <mxCell id="UB3R42ZhoQ2jqi41_uFo-68" value="product_number" style="shape=partialRectangle;connectable=0;fillColor=none;top=0;left=0;bottom=0;right=0;align=left;spacingLeft=6;overflow=hidden;whiteSpace=wrap;html=1;fontSize=16;" vertex="1" parent="UB3R42ZhoQ2jqi41_uFo-66">
          <mxGeometry x="30" width="190" height="39" as="geometry">
            <mxRectangle width="190" height="39" as="alternateBounds" />
          </mxGeometry>
        </mxCell>
        <mxCell id="UB3R42ZhoQ2jqi41_uFo-69" value="" style="shape=tableRow;horizontal=0;startSize=0;swimlaneHead=0;swimlaneBody=0;fillColor=none;collapsible=0;dropTarget=0;points=[[0,0.5],[1,0.5]];portConstraint=eastwest;top=0;left=0;right=0;bottom=0;fontSize=16;" vertex="1" parent="UB3R42ZhoQ2jqi41_uFo-59">
          <mxGeometry y="157" width="220" height="39" as="geometry" />
        </mxCell>
        <mxCell id="UB3R42ZhoQ2jqi41_uFo-70" value="" style="shape=partialRectangle;connectable=0;fillColor=none;top=0;left=0;bottom=0;right=0;editable=1;overflow=hidden;whiteSpace=wrap;html=1;fontSize=16;" vertex="1" parent="UB3R42ZhoQ2jqi41_uFo-69">
          <mxGeometry width="30" height="39" as="geometry">
            <mxRectangle width="30" height="39" as="alternateBounds" />
          </mxGeometry>
        </mxCell>
        <mxCell id="UB3R42ZhoQ2jqi41_uFo-71" value="product_name" style="shape=partialRectangle;connectable=0;fillColor=none;top=0;left=0;bottom=0;right=0;align=left;spacingLeft=6;overflow=hidden;whiteSpace=wrap;html=1;fontSize=16;" vertex="1" parent="UB3R42ZhoQ2jqi41_uFo-69">
          <mxGeometry x="30" width="190" height="39" as="geometry">
            <mxRectangle width="190" height="39" as="alternateBounds" />
          </mxGeometry>
        </mxCell>
        <mxCell id="UB3R42ZhoQ2jqi41_uFo-75" value="" style="shape=tableRow;horizontal=0;startSize=0;swimlaneHead=0;swimlaneBody=0;fillColor=none;collapsible=0;dropTarget=0;points=[[0,0.5],[1,0.5]];portConstraint=eastwest;top=0;left=0;right=0;bottom=0;fontSize=16;" vertex="1" parent="UB3R42ZhoQ2jqi41_uFo-59">
          <mxGeometry y="196" width="220" height="39" as="geometry" />
        </mxCell>
        <mxCell id="UB3R42ZhoQ2jqi41_uFo-76" value="" style="shape=partialRectangle;connectable=0;fillColor=none;top=0;left=0;bottom=0;right=0;editable=1;overflow=hidden;whiteSpace=wrap;html=1;fontSize=16;" vertex="1" parent="UB3R42ZhoQ2jqi41_uFo-75">
          <mxGeometry width="30" height="39" as="geometry">
            <mxRectangle width="30" height="39" as="alternateBounds" />
          </mxGeometry>
        </mxCell>
        <mxCell id="UB3R42ZhoQ2jqi41_uFo-77" value="category_id" style="shape=partialRectangle;connectable=0;fillColor=none;top=0;left=0;bottom=0;right=0;align=left;spacingLeft=6;overflow=hidden;whiteSpace=wrap;html=1;fontSize=16;" vertex="1" parent="UB3R42ZhoQ2jqi41_uFo-75">
          <mxGeometry x="30" width="190" height="39" as="geometry">
            <mxRectangle width="190" height="39" as="alternateBounds" />
          </mxGeometry>
        </mxCell>
        <mxCell id="UB3R42ZhoQ2jqi41_uFo-78" value="" style="shape=tableRow;horizontal=0;startSize=0;swimlaneHead=0;swimlaneBody=0;fillColor=none;collapsible=0;dropTarget=0;points=[[0,0.5],[1,0.5]];portConstraint=eastwest;top=0;left=0;right=0;bottom=0;fontSize=16;" vertex="1" parent="UB3R42ZhoQ2jqi41_uFo-59">
          <mxGeometry y="235" width="220" height="39" as="geometry" />
        </mxCell>
        <mxCell id="UB3R42ZhoQ2jqi41_uFo-79" value="" style="shape=partialRectangle;connectable=0;fillColor=none;top=0;left=0;bottom=0;right=0;editable=1;overflow=hidden;whiteSpace=wrap;html=1;fontSize=16;" vertex="1" parent="UB3R42ZhoQ2jqi41_uFo-78">
          <mxGeometry width="30" height="39" as="geometry">
            <mxRectangle width="30" height="39" as="alternateBounds" />
          </mxGeometry>
        </mxCell>
        <mxCell id="UB3R42ZhoQ2jqi41_uFo-80" value="category" style="shape=partialRectangle;connectable=0;fillColor=none;top=0;left=0;bottom=0;right=0;align=left;spacingLeft=6;overflow=hidden;whiteSpace=wrap;html=1;fontSize=16;" vertex="1" parent="UB3R42ZhoQ2jqi41_uFo-78">
          <mxGeometry x="30" width="190" height="39" as="geometry">
            <mxRectangle width="190" height="39" as="alternateBounds" />
          </mxGeometry>
        </mxCell>
        <mxCell id="UB3R42ZhoQ2jqi41_uFo-81" value="" style="shape=tableRow;horizontal=0;startSize=0;swimlaneHead=0;swimlaneBody=0;fillColor=none;collapsible=0;dropTarget=0;points=[[0,0.5],[1,0.5]];portConstraint=eastwest;top=0;left=0;right=0;bottom=0;fontSize=16;" vertex="1" parent="UB3R42ZhoQ2jqi41_uFo-59">
          <mxGeometry y="274" width="220" height="39" as="geometry" />
        </mxCell>
        <mxCell id="UB3R42ZhoQ2jqi41_uFo-82" value="" style="shape=partialRectangle;connectable=0;fillColor=none;top=0;left=0;bottom=0;right=0;editable=1;overflow=hidden;whiteSpace=wrap;html=1;fontSize=16;" vertex="1" parent="UB3R42ZhoQ2jqi41_uFo-81">
          <mxGeometry width="30" height="39" as="geometry">
            <mxRectangle width="30" height="39" as="alternateBounds" />
          </mxGeometry>
        </mxCell>
        <mxCell id="UB3R42ZhoQ2jqi41_uFo-83" value="subcategory" style="shape=partialRectangle;connectable=0;fillColor=none;top=0;left=0;bottom=0;right=0;align=left;spacingLeft=6;overflow=hidden;whiteSpace=wrap;html=1;fontSize=16;" vertex="1" parent="UB3R42ZhoQ2jqi41_uFo-81">
          <mxGeometry x="30" width="190" height="39" as="geometry">
            <mxRectangle width="190" height="39" as="alternateBounds" />
          </mxGeometry>
        </mxCell>
        <mxCell id="UB3R42ZhoQ2jqi41_uFo-84" value="" style="shape=tableRow;horizontal=0;startSize=0;swimlaneHead=0;swimlaneBody=0;fillColor=none;collapsible=0;dropTarget=0;points=[[0,0.5],[1,0.5]];portConstraint=eastwest;top=0;left=0;right=0;bottom=0;fontSize=16;" vertex="1" parent="UB3R42ZhoQ2jqi41_uFo-59">
          <mxGeometry y="313" width="220" height="39" as="geometry" />
        </mxCell>
        <mxCell id="UB3R42ZhoQ2jqi41_uFo-85" value="" style="shape=partialRectangle;connectable=0;fillColor=none;top=0;left=0;bottom=0;right=0;editable=1;overflow=hidden;whiteSpace=wrap;html=1;fontSize=16;" vertex="1" parent="UB3R42ZhoQ2jqi41_uFo-84">
          <mxGeometry width="30" height="39" as="geometry">
            <mxRectangle width="30" height="39" as="alternateBounds" />
          </mxGeometry>
        </mxCell>
        <mxCell id="UB3R42ZhoQ2jqi41_uFo-86" value="maintenance" style="shape=partialRectangle;connectable=0;fillColor=none;top=0;left=0;bottom=0;right=0;align=left;spacingLeft=6;overflow=hidden;whiteSpace=wrap;html=1;fontSize=16;" vertex="1" parent="UB3R42ZhoQ2jqi41_uFo-84">
          <mxGeometry x="30" width="190" height="39" as="geometry">
            <mxRectangle width="190" height="39" as="alternateBounds" />
          </mxGeometry>
        </mxCell>
        <mxCell id="UB3R42ZhoQ2jqi41_uFo-87" value="" style="shape=tableRow;horizontal=0;startSize=0;swimlaneHead=0;swimlaneBody=0;fillColor=none;collapsible=0;dropTarget=0;points=[[0,0.5],[1,0.5]];portConstraint=eastwest;top=0;left=0;right=0;bottom=0;fontSize=16;" vertex="1" parent="UB3R42ZhoQ2jqi41_uFo-59">
          <mxGeometry y="352" width="220" height="39" as="geometry" />
        </mxCell>
        <mxCell id="UB3R42ZhoQ2jqi41_uFo-88" value="" style="shape=partialRectangle;connectable=0;fillColor=none;top=0;left=0;bottom=0;right=0;editable=1;overflow=hidden;whiteSpace=wrap;html=1;fontSize=16;" vertex="1" parent="UB3R42ZhoQ2jqi41_uFo-87">
          <mxGeometry width="30" height="39" as="geometry">
            <mxRectangle width="30" height="39" as="alternateBounds" />
          </mxGeometry>
        </mxCell>
        <mxCell id="UB3R42ZhoQ2jqi41_uFo-89" value="cost" style="shape=partialRectangle;connectable=0;fillColor=none;top=0;left=0;bottom=0;right=0;align=left;spacingLeft=6;overflow=hidden;whiteSpace=wrap;html=1;fontSize=16;" vertex="1" parent="UB3R42ZhoQ2jqi41_uFo-87">
          <mxGeometry x="30" width="190" height="39" as="geometry">
            <mxRectangle width="190" height="39" as="alternateBounds" />
          </mxGeometry>
        </mxCell>
        <mxCell id="UB3R42ZhoQ2jqi41_uFo-90" value="" style="shape=tableRow;horizontal=0;startSize=0;swimlaneHead=0;swimlaneBody=0;fillColor=none;collapsible=0;dropTarget=0;points=[[0,0.5],[1,0.5]];portConstraint=eastwest;top=0;left=0;right=0;bottom=0;fontSize=16;" vertex="1" parent="UB3R42ZhoQ2jqi41_uFo-59">
          <mxGeometry y="391" width="220" height="39" as="geometry" />
        </mxCell>
        <mxCell id="UB3R42ZhoQ2jqi41_uFo-91" value="" style="shape=partialRectangle;connectable=0;fillColor=none;top=0;left=0;bottom=0;right=0;editable=1;overflow=hidden;whiteSpace=wrap;html=1;fontSize=16;" vertex="1" parent="UB3R42ZhoQ2jqi41_uFo-90">
          <mxGeometry width="30" height="39" as="geometry">
            <mxRectangle width="30" height="39" as="alternateBounds" />
          </mxGeometry>
        </mxCell>
        <mxCell id="UB3R42ZhoQ2jqi41_uFo-92" value="product_line" style="shape=partialRectangle;connectable=0;fillColor=none;top=0;left=0;bottom=0;right=0;align=left;spacingLeft=6;overflow=hidden;whiteSpace=wrap;html=1;fontSize=16;" vertex="1" parent="UB3R42ZhoQ2jqi41_uFo-90">
          <mxGeometry x="30" width="190" height="39" as="geometry">
            <mxRectangle width="190" height="39" as="alternateBounds" />
          </mxGeometry>
        </mxCell>
        <mxCell id="UB3R42ZhoQ2jqi41_uFo-93" value="" style="shape=tableRow;horizontal=0;startSize=0;swimlaneHead=0;swimlaneBody=0;fillColor=none;collapsible=0;dropTarget=0;points=[[0,0.5],[1,0.5]];portConstraint=eastwest;top=0;left=0;right=0;bottom=0;fontSize=16;" vertex="1" parent="UB3R42ZhoQ2jqi41_uFo-59">
          <mxGeometry y="430" width="220" height="39" as="geometry" />
        </mxCell>
        <mxCell id="UB3R42ZhoQ2jqi41_uFo-94" value="" style="shape=partialRectangle;connectable=0;fillColor=none;top=0;left=0;bottom=0;right=0;editable=1;overflow=hidden;whiteSpace=wrap;html=1;fontSize=16;" vertex="1" parent="UB3R42ZhoQ2jqi41_uFo-93">
          <mxGeometry width="30" height="39" as="geometry">
            <mxRectangle width="30" height="39" as="alternateBounds" />
          </mxGeometry>
        </mxCell>
        <mxCell id="UB3R42ZhoQ2jqi41_uFo-95" value="start_date" style="shape=partialRectangle;connectable=0;fillColor=none;top=0;left=0;bottom=0;right=0;align=left;spacingLeft=6;overflow=hidden;whiteSpace=wrap;html=1;fontSize=16;" vertex="1" parent="UB3R42ZhoQ2jqi41_uFo-93">
          <mxGeometry x="30" width="190" height="39" as="geometry">
            <mxRectangle width="190" height="39" as="alternateBounds" />
          </mxGeometry>
        </mxCell>
        <mxCell id="UB3R42ZhoQ2jqi41_uFo-96" value="gold.fact_sales" style="shape=table;startSize=40;container=1;collapsible=1;childLayout=tableLayout;fixedRows=1;rowLines=0;fontStyle=1;align=center;resizeLast=1;html=1;rounded=1;fontSize=16;fillColor=#dae8fc;strokeColor=#6c8ebf;" vertex="1" parent="1">
          <mxGeometry x="520" y="120" width="220" height="391" as="geometry" />
        </mxCell>
        <mxCell id="UB3R42ZhoQ2jqi41_uFo-100" value="" style="shape=tableRow;horizontal=0;startSize=0;swimlaneHead=0;swimlaneBody=0;fillColor=none;collapsible=0;dropTarget=0;points=[[0,0.5],[1,0.5]];portConstraint=eastwest;top=0;left=0;right=0;bottom=0;fontSize=16;" vertex="1" parent="UB3R42ZhoQ2jqi41_uFo-96">
          <mxGeometry y="40" width="220" height="39" as="geometry" />
        </mxCell>
        <mxCell id="UB3R42ZhoQ2jqi41_uFo-101" value="" style="shape=partialRectangle;connectable=0;fillColor=none;top=0;left=0;bottom=0;right=0;editable=1;overflow=hidden;whiteSpace=wrap;html=1;fontSize=16;" vertex="1" parent="UB3R42ZhoQ2jqi41_uFo-100">
          <mxGeometry width="40" height="39" as="geometry">
            <mxRectangle width="40" height="39" as="alternateBounds" />
          </mxGeometry>
        </mxCell>
        <mxCell id="UB3R42ZhoQ2jqi41_uFo-102" value="order_number" style="shape=partialRectangle;connectable=0;fillColor=none;top=0;left=0;bottom=0;right=0;align=left;spacingLeft=6;overflow=hidden;whiteSpace=wrap;html=1;fontSize=16;" vertex="1" parent="UB3R42ZhoQ2jqi41_uFo-100">
          <mxGeometry x="40" width="180" height="39" as="geometry">
            <mxRectangle width="180" height="39" as="alternateBounds" />
          </mxGeometry>
        </mxCell>
        <mxCell id="UB3R42ZhoQ2jqi41_uFo-103" value="" style="shape=tableRow;horizontal=0;startSize=0;swimlaneHead=0;swimlaneBody=0;fillColor=none;collapsible=0;dropTarget=0;points=[[0,0.5],[1,0.5]];portConstraint=eastwest;top=0;left=0;right=0;bottom=0;fontSize=16;" vertex="1" parent="UB3R42ZhoQ2jqi41_uFo-96">
          <mxGeometry y="79" width="220" height="39" as="geometry" />
        </mxCell>
        <mxCell id="UB3R42ZhoQ2jqi41_uFo-104" value="FK1" style="shape=partialRectangle;connectable=0;fillColor=none;top=0;left=0;bottom=0;right=0;editable=1;overflow=hidden;whiteSpace=wrap;html=1;fontSize=16;" vertex="1" parent="UB3R42ZhoQ2jqi41_uFo-103">
          <mxGeometry width="40" height="39" as="geometry">
            <mxRectangle width="40" height="39" as="alternateBounds" />
          </mxGeometry>
        </mxCell>
        <mxCell id="UB3R42ZhoQ2jqi41_uFo-105" value="product_key" style="shape=partialRectangle;connectable=0;fillColor=none;top=0;left=0;bottom=0;right=0;align=left;spacingLeft=6;overflow=hidden;whiteSpace=wrap;html=1;fontSize=16;" vertex="1" parent="UB3R42ZhoQ2jqi41_uFo-103">
          <mxGeometry x="40" width="180" height="39" as="geometry">
            <mxRectangle width="180" height="39" as="alternateBounds" />
          </mxGeometry>
        </mxCell>
        <mxCell id="UB3R42ZhoQ2jqi41_uFo-106" value="" style="shape=tableRow;horizontal=0;startSize=0;swimlaneHead=0;swimlaneBody=0;fillColor=none;collapsible=0;dropTarget=0;points=[[0,0.5],[1,0.5]];portConstraint=eastwest;top=0;left=0;right=0;bottom=0;fontSize=16;" vertex="1" parent="UB3R42ZhoQ2jqi41_uFo-96">
          <mxGeometry y="118" width="220" height="39" as="geometry" />
        </mxCell>
        <mxCell id="UB3R42ZhoQ2jqi41_uFo-107" value="FK2" style="shape=partialRectangle;connectable=0;fillColor=none;top=0;left=0;bottom=0;right=0;editable=1;overflow=hidden;whiteSpace=wrap;html=1;fontSize=16;" vertex="1" parent="UB3R42ZhoQ2jqi41_uFo-106">
          <mxGeometry width="40" height="39" as="geometry">
            <mxRectangle width="40" height="39" as="alternateBounds" />
          </mxGeometry>
        </mxCell>
        <mxCell id="UB3R42ZhoQ2jqi41_uFo-108" value="customer_key" style="shape=partialRectangle;connectable=0;fillColor=none;top=0;left=0;bottom=0;right=0;align=left;spacingLeft=6;overflow=hidden;whiteSpace=wrap;html=1;fontSize=16;" vertex="1" parent="UB3R42ZhoQ2jqi41_uFo-106">
          <mxGeometry x="40" width="180" height="39" as="geometry">
            <mxRectangle width="180" height="39" as="alternateBounds" />
          </mxGeometry>
        </mxCell>
        <mxCell id="UB3R42ZhoQ2jqi41_uFo-109" value="" style="shape=tableRow;horizontal=0;startSize=0;swimlaneHead=0;swimlaneBody=0;fillColor=none;collapsible=0;dropTarget=0;points=[[0,0.5],[1,0.5]];portConstraint=eastwest;top=0;left=0;right=0;bottom=0;fontSize=16;" vertex="1" parent="UB3R42ZhoQ2jqi41_uFo-96">
          <mxGeometry y="157" width="220" height="39" as="geometry" />
        </mxCell>
        <mxCell id="UB3R42ZhoQ2jqi41_uFo-110" value="" style="shape=partialRectangle;connectable=0;fillColor=none;top=0;left=0;bottom=0;right=0;editable=1;overflow=hidden;whiteSpace=wrap;html=1;fontSize=16;" vertex="1" parent="UB3R42ZhoQ2jqi41_uFo-109">
          <mxGeometry width="40" height="39" as="geometry">
            <mxRectangle width="40" height="39" as="alternateBounds" />
          </mxGeometry>
        </mxCell>
        <mxCell id="UB3R42ZhoQ2jqi41_uFo-111" value="order_date" style="shape=partialRectangle;connectable=0;fillColor=none;top=0;left=0;bottom=0;right=0;align=left;spacingLeft=6;overflow=hidden;whiteSpace=wrap;html=1;fontSize=16;" vertex="1" parent="UB3R42ZhoQ2jqi41_uFo-109">
          <mxGeometry x="40" width="180" height="39" as="geometry">
            <mxRectangle width="180" height="39" as="alternateBounds" />
          </mxGeometry>
        </mxCell>
        <mxCell id="UB3R42ZhoQ2jqi41_uFo-112" value="" style="shape=tableRow;horizontal=0;startSize=0;swimlaneHead=0;swimlaneBody=0;fillColor=none;collapsible=0;dropTarget=0;points=[[0,0.5],[1,0.5]];portConstraint=eastwest;top=0;left=0;right=0;bottom=0;fontSize=16;" vertex="1" parent="UB3R42ZhoQ2jqi41_uFo-96">
          <mxGeometry y="196" width="220" height="39" as="geometry" />
        </mxCell>
        <mxCell id="UB3R42ZhoQ2jqi41_uFo-113" value="" style="shape=partialRectangle;connectable=0;fillColor=none;top=0;left=0;bottom=0;right=0;editable=1;overflow=hidden;whiteSpace=wrap;html=1;fontSize=16;" vertex="1" parent="UB3R42ZhoQ2jqi41_uFo-112">
          <mxGeometry width="40" height="39" as="geometry">
            <mxRectangle width="40" height="39" as="alternateBounds" />
          </mxGeometry>
        </mxCell>
        <mxCell id="UB3R42ZhoQ2jqi41_uFo-114" value="shipping_date" style="shape=partialRectangle;connectable=0;fillColor=none;top=0;left=0;bottom=0;right=0;align=left;spacingLeft=6;overflow=hidden;whiteSpace=wrap;html=1;fontSize=16;" vertex="1" parent="UB3R42ZhoQ2jqi41_uFo-112">
          <mxGeometry x="40" width="180" height="39" as="geometry">
            <mxRectangle width="180" height="39" as="alternateBounds" />
          </mxGeometry>
        </mxCell>
        <mxCell id="UB3R42ZhoQ2jqi41_uFo-115" value="" style="shape=tableRow;horizontal=0;startSize=0;swimlaneHead=0;swimlaneBody=0;fillColor=none;collapsible=0;dropTarget=0;points=[[0,0.5],[1,0.5]];portConstraint=eastwest;top=0;left=0;right=0;bottom=0;fontSize=16;" vertex="1" parent="UB3R42ZhoQ2jqi41_uFo-96">
          <mxGeometry y="235" width="220" height="39" as="geometry" />
        </mxCell>
        <mxCell id="UB3R42ZhoQ2jqi41_uFo-116" value="" style="shape=partialRectangle;connectable=0;fillColor=none;top=0;left=0;bottom=0;right=0;editable=1;overflow=hidden;whiteSpace=wrap;html=1;fontSize=16;" vertex="1" parent="UB3R42ZhoQ2jqi41_uFo-115">
          <mxGeometry width="40" height="39" as="geometry">
            <mxRectangle width="40" height="39" as="alternateBounds" />
          </mxGeometry>
        </mxCell>
        <mxCell id="UB3R42ZhoQ2jqi41_uFo-117" value="due_date" style="shape=partialRectangle;connectable=0;fillColor=none;top=0;left=0;bottom=0;right=0;align=left;spacingLeft=6;overflow=hidden;whiteSpace=wrap;html=1;fontSize=16;" vertex="1" parent="UB3R42ZhoQ2jqi41_uFo-115">
          <mxGeometry x="40" width="180" height="39" as="geometry">
            <mxRectangle width="180" height="39" as="alternateBounds" />
          </mxGeometry>
        </mxCell>
        <mxCell id="UB3R42ZhoQ2jqi41_uFo-118" value="" style="shape=tableRow;horizontal=0;startSize=0;swimlaneHead=0;swimlaneBody=0;fillColor=none;collapsible=0;dropTarget=0;points=[[0,0.5],[1,0.5]];portConstraint=eastwest;top=0;left=0;right=0;bottom=0;fontSize=16;" vertex="1" parent="UB3R42ZhoQ2jqi41_uFo-96">
          <mxGeometry y="274" width="220" height="39" as="geometry" />
        </mxCell>
        <mxCell id="UB3R42ZhoQ2jqi41_uFo-119" value="" style="shape=partialRectangle;connectable=0;fillColor=none;top=0;left=0;bottom=0;right=0;editable=1;overflow=hidden;whiteSpace=wrap;html=1;fontSize=16;" vertex="1" parent="UB3R42ZhoQ2jqi41_uFo-118">
          <mxGeometry width="40" height="39" as="geometry">
            <mxRectangle width="40" height="39" as="alternateBounds" />
          </mxGeometry>
        </mxCell>
        <mxCell id="UB3R42ZhoQ2jqi41_uFo-120" value="sales_amount" style="shape=partialRectangle;connectable=0;fillColor=none;top=0;left=0;bottom=0;right=0;align=left;spacingLeft=6;overflow=hidden;whiteSpace=wrap;html=1;fontSize=16;" vertex="1" parent="UB3R42ZhoQ2jqi41_uFo-118">
          <mxGeometry x="40" width="180" height="39" as="geometry">
            <mxRectangle width="180" height="39" as="alternateBounds" />
          </mxGeometry>
        </mxCell>
        <mxCell id="UB3R42ZhoQ2jqi41_uFo-121" value="" style="shape=tableRow;horizontal=0;startSize=0;swimlaneHead=0;swimlaneBody=0;fillColor=none;collapsible=0;dropTarget=0;points=[[0,0.5],[1,0.5]];portConstraint=eastwest;top=0;left=0;right=0;bottom=0;fontSize=16;" vertex="1" parent="UB3R42ZhoQ2jqi41_uFo-96">
          <mxGeometry y="313" width="220" height="39" as="geometry" />
        </mxCell>
        <mxCell id="UB3R42ZhoQ2jqi41_uFo-122" value="" style="shape=partialRectangle;connectable=0;fillColor=none;top=0;left=0;bottom=0;right=0;editable=1;overflow=hidden;whiteSpace=wrap;html=1;fontSize=16;" vertex="1" parent="UB3R42ZhoQ2jqi41_uFo-121">
          <mxGeometry width="40" height="39" as="geometry">
            <mxRectangle width="40" height="39" as="alternateBounds" />
          </mxGeometry>
        </mxCell>
        <mxCell id="UB3R42ZhoQ2jqi41_uFo-123" value="quantity" style="shape=partialRectangle;connectable=0;fillColor=none;top=0;left=0;bottom=0;right=0;align=left;spacingLeft=6;overflow=hidden;whiteSpace=wrap;html=1;fontSize=16;" vertex="1" parent="UB3R42ZhoQ2jqi41_uFo-121">
          <mxGeometry x="40" width="180" height="39" as="geometry">
            <mxRectangle width="180" height="39" as="alternateBounds" />
          </mxGeometry>
        </mxCell>
        <mxCell id="UB3R42ZhoQ2jqi41_uFo-124" value="" style="shape=tableRow;horizontal=0;startSize=0;swimlaneHead=0;swimlaneBody=0;fillColor=none;collapsible=0;dropTarget=0;points=[[0,0.5],[1,0.5]];portConstraint=eastwest;top=0;left=0;right=0;bottom=0;fontSize=16;" vertex="1" parent="UB3R42ZhoQ2jqi41_uFo-96">
          <mxGeometry y="352" width="220" height="39" as="geometry" />
        </mxCell>
        <mxCell id="UB3R42ZhoQ2jqi41_uFo-125" value="" style="shape=partialRectangle;connectable=0;fillColor=none;top=0;left=0;bottom=0;right=0;editable=1;overflow=hidden;whiteSpace=wrap;html=1;fontSize=16;" vertex="1" parent="UB3R42ZhoQ2jqi41_uFo-124">
          <mxGeometry width="40" height="39" as="geometry">
            <mxRectangle width="40" height="39" as="alternateBounds" />
          </mxGeometry>
        </mxCell>
        <mxCell id="UB3R42ZhoQ2jqi41_uFo-126" value="price" style="shape=partialRectangle;connectable=0;fillColor=none;top=0;left=0;bottom=0;right=0;align=left;spacingLeft=6;overflow=hidden;whiteSpace=wrap;html=1;fontSize=16;" vertex="1" parent="UB3R42ZhoQ2jqi41_uFo-124">
          <mxGeometry x="40" width="180" height="39" as="geometry">
            <mxRectangle width="180" height="39" as="alternateBounds" />
          </mxGeometry>
        </mxCell>
        <mxCell id="UB3R42ZhoQ2jqi41_uFo-133" value="" style="edgeStyle=entityRelationEdgeStyle;fontSize=12;html=1;endArrow=ERzeroToMany;startArrow=ERmandOne;rounded=0;exitX=1;exitY=0.5;exitDx=0;exitDy=0;entryX=0;entryY=0.5;entryDx=0;entryDy=0;" edge="1" parent="1" source="UB3R42ZhoQ2jqi41_uFo-29" target="UB3R42ZhoQ2jqi41_uFo-106">
          <mxGeometry width="100" height="100" relative="1" as="geometry">
            <mxPoint x="390" y="320" as="sourcePoint" />
            <mxPoint x="490" y="220" as="targetPoint" />
          </mxGeometry>
        </mxCell>
        <mxCell id="UB3R42ZhoQ2jqi41_uFo-134" value="" style="edgeStyle=entityRelationEdgeStyle;fontSize=12;html=1;endArrow=ERzeroToMany;startArrow=ERmandOne;rounded=0;exitX=0;exitY=0.5;exitDx=0;exitDy=0;entryX=1;entryY=0.25;entryDx=0;entryDy=0;" edge="1" parent="1" source="UB3R42ZhoQ2jqi41_uFo-60" target="UB3R42ZhoQ2jqi41_uFo-96">
          <mxGeometry width="100" height="100" relative="1" as="geometry">
            <mxPoint x="780" y="330" as="sourcePoint" />
            <mxPoint x="880" y="230" as="targetPoint" />
          </mxGeometry>
        </mxCell>
        <mxCell id="UB3R42ZhoQ2jqi41_uFo-135" value="&lt;font style=&quot;font-size: 30px;&quot;&gt;&lt;b&gt;Sales Data Mart&lt;/b&gt;&lt;/font&gt;&lt;font style=&quot;font-size: 16px;&quot;&gt; (Star schema)&lt;/font&gt;" style="text;html=1;align=center;verticalAlign=middle;whiteSpace=wrap;rounded=0;" vertex="1" parent="1">
          <mxGeometry x="100" y="20" width="350" height="40" as="geometry" />
        </mxCell>
        <mxCell id="UB3R42ZhoQ2jqi41_uFo-136" value="&lt;h1 style=&quot;margin-top: 0px;&quot;&gt;&lt;font style=&quot;font-size: 18px;&quot;&gt;Sales Calculation&lt;/font&gt;&lt;/h1&gt;&lt;p&gt;Sales_Amount = Quantity * Price&lt;/p&gt;" style="text;html=1;whiteSpace=wrap;overflow=hidden;rounded=0;strokeColor=default;" vertex="1" parent="1">
          <mxGeometry x="520" y="570" width="200" height="90" as="geometry" />
        </mxCell>
        <mxCell id="UB3R42ZhoQ2jqi41_uFo-137" value="" style="endArrow=classic;html=1;rounded=0;exitX=0.5;exitY=0;exitDx=0;exitDy=0;entryX=0;entryY=0.5;entryDx=0;entryDy=0;" edge="1" parent="1" source="UB3R42ZhoQ2jqi41_uFo-136" target="UB3R42ZhoQ2jqi41_uFo-118">
          <mxGeometry width="50" height="50" relative="1" as="geometry">
            <mxPoint x="490" y="470" as="sourcePoint" />
            <mxPoint x="540" y="420" as="targetPoint" />
            <Array as="points">
              <mxPoint x="490" y="530" />
            </Array>
          </mxGeometry>
        </mxCell>
      </root>
    </mxGraphModel>
  </diagram>
</mxfile>
